<?xml version="1.0" standalone="no"?>
<!DOCTYPE svg PUBLIC "-//W3C//DTD SVG 20010904//EN"
 "http://www.w3.org/TR/2001/REC-SVG-20010904/DTD/svg10.dtd">
<svg version="1.0" xmlns="http://www.w3.org/2000/svg"
 width="279.000000pt" height="247.000000pt" viewBox="0 0 279.000000 247.000000"
 preserveAspectRatio="xMidYMid meet">

<g transform="translate(0.000000,247.000000) scale(0.100000,-0.100000)"
fill="#000000" stroke="none">
<path d="M1094 2289 c-22 -4 -42 -5 -46 -2 -5 2 -8 0 -8 -6 0 -5 -18 -8 -40
-6 -22 2 -53 0 -69 -5 -18 -5 -31 -4 -33 1 -2 5 -16 5 -36 0 -37 -11 -139 -14
-189 -6 -18 2 -33 1 -33 -3 0 -4 -28 -7 -63 -6 -34 0 -69 -3 -78 -8 -9 -4 -59
-10 -110 -12 -126 -6 -163 -14 -148 -32 6 -8 22 -12 35 -10 13 3 26 1 29 -3 5
-10 111 -8 121 1 4 4 13 0 21 -10 8 -9 12 -11 8 -4 -4 8 1 12 14 12 12 0 21 4
21 9 0 6 12 6 29 1 25 -7 29 -6 24 8 -4 10 -2 13 5 8 20 -12 126 -13 141 -2
12 9 13 8 9 -5 -5 -13 -2 -16 13 -12 10 3 16 10 12 16 -4 6 4 7 23 2 31 -8
142 -7 156 1 4 3 8 0 8 -7 0 -10 3 -10 12 -1 15 15 31 16 22 0 -4 -6 -3 -8 3
-5 5 3 25 9 44 12 19 4 41 8 49 10 8 2 20 4 25 4 6 1 3 5 -5 11 -8 5 -12 11
-9 15 3 3 16 -4 28 -14 21 -18 57 -19 46 -2 -2 4 19 4 48 1 29 -4 105 -6 170
-5 65 0 121 -3 123 -7 3 -5 14 -2 25 6 21 14 59 11 59 -6 0 -5 6 -5 16 0 9 5
42 5 77 0 108 -15 116 -15 157 -8 24 4 40 3 40 -2 0 -6 7 -8 15 -4 8 3 15 2
15 -2 0 -4 18 -6 40 -4 27 3 40 9 40 19 0 13 3 13 16 2 13 -10 17 -10 24 2 7
9 5 15 -5 17 -8 2 -15 8 -15 13 0 17 -17 9 -28 -13 l-11 -23 0 22 c-1 20 -6
22 -53 22 -49 1 -140 7 -198 14 -14 2 -35 0 -48 -5 -14 -5 -21 -4 -17 1 6 11
-126 19 -160 9 -13 -3 -25 -2 -27 3 -2 4 -21 4 -43 -1 -22 -5 -42 -6 -45 -2
-6 10 -21 9 -37 -1 -8 -5 -13 -3 -13 4 0 8 -7 6 -19 -5 -13 -12 -20 -14 -23
-5 -4 13 -94 18 -154 8z"/>
<path d="M2015 2250 c4 -6 -1 -20 -11 -31 -12 -13 -13 -19 -4 -19 10 0 9 -5
-3 -18 -10 -11 -14 -26 -10 -41 5 -19 3 -22 -8 -16 -11 6 -12 5 -2 -5 10 -11
10 -17 -3 -31 -12 -13 -12 -19 -3 -25 7 -4 10 -3 5 4 -3 6 -1 14 5 18 8 5 10
-3 7 -27 -3 -19 -1 -42 4 -51 5 -12 5 -18 -2 -18 -6 0 -8 -14 -4 -36 4 -25 1
-39 -8 -45 -10 -7 -10 -9 0 -9 9 0 11 -13 7 -49 -3 -30 -2 -52 5 -56 6 -3 7
-11 4 -17 -4 -6 1 -17 12 -25 16 -12 17 -15 4 -23 -13 -8 -12 -10 3 -10 9 0
17 -7 17 -15 0 -10 -11 -15 -35 -15 -47 0 -48 0 -62 -12 -10 -8 -13 -6 -13 6
0 10 -5 14 -10 11 -6 -4 -18 -1 -27 7 -12 9 -15 9 -9 1 9 -16 -6 -17 -22 -1
-9 9 -13 7 -18 -5 -3 -9 -13 -17 -21 -17 -13 0 -13 3 -2 18 13 16 13 16 -7 0
-21 -19 -110 -26 -99 -9 3 5 -8 3 -23 -5 -39 -19 -97 -30 -89 -17 5 7 -4 8
-26 4 -41 -10 -58 -4 -49 17 5 16 5 16 -11 0 -12 -11 -31 -16 -62 -14 -38 2
-47 -1 -61 -22 -9 -13 -11 -21 -5 -18 7 5 9 1 5 -8 -3 -9 -9 -14 -13 -12 -3 3
-6 -13 -6 -34 0 -21 -3 -36 -7 -34 -3 2 -9 0 -13 -6 -3 -5 -1 -10 6 -10 7 0 6
-8 -5 -25 -19 -29 -20 -39 -3 -29 9 5 9 4 0 -6 -6 -7 -9 -19 -6 -26 3 -8 0
-21 -7 -29 -7 -8 -8 -15 -4 -15 5 0 10 -18 10 -40 1 -22 -2 -40 -5 -40 -4 0
-6 -12 -5 -27 1 -16 3 -28 4 -28 0 0 3 -24 5 -52 2 -33 0 -53 -7 -53 -6 0 -5
-7 3 -17 10 -11 10 -14 2 -9 -7 4 -13 3 -13 -1 0 -5 6 -15 13 -22 10 -11 9
-12 -2 -6 -11 6 -12 1 -7 -29 4 -20 3 -36 -1 -36 -5 0 -8 -24 -9 -52 0 -29 -3
-108 -7 -176 -6 -93 -5 -122 5 -122 6 0 4 -6 -7 -14 -12 -8 -16 -20 -12 -34 3
-12 1 -24 -3 -27 -4 -3 -6 -23 -3 -45 4 -26 1 -46 -8 -57 -12 -15 -12 -16 1
-8 12 7 13 6 3 -7 -7 -8 -10 -18 -6 -21 3 -4 1 -13 -6 -20 -9 -11 -8 -17 3
-26 14 -12 16 -28 4 -46 -4 -6 -3 -17 3 -25 5 -8 9 -18 9 -22 0 -9 -115 -2
-131 8 -7 4 -10 3 -6 -3 7 -10 -20 -28 -35 -25 -5 1 -8 -3 -8 -9 0 -5 -4 -8
-10 -4 -5 3 -26 -1 -46 -10 -20 -8 -40 -13 -44 -10 -5 3 -11 1 -15 -5 -4 -7
-12 -7 -26 0 -13 8 -19 7 -19 0 0 -6 -6 -10 -12 -9 -20 3 -70 -20 -64 -29 3
-5 -8 -6 -24 -4 -26 4 -29 8 -26 33 2 16 -1 32 -6 35 -6 4 -5 10 3 15 12 7 12
9 0 9 -11 0 -11 3 -1 15 10 12 10 15 0 15 -10 0 -10 4 1 16 10 13 10 17 -2 25
-9 6 -10 12 -4 16 6 5 11 19 12 33 5 90 13 157 18 173 4 9 5 26 2 37 -3 11 0
20 6 20 8 0 7 4 -2 9 -9 6 -10 10 -2 12 6 2 13 14 15 26 3 11 12 35 20 52 9
16 16 43 16 58 0 15 7 40 14 56 13 23 13 27 1 27 -11 0 -12 4 -1 24 7 14 11
49 10 78 -2 35 0 48 6 38 5 -8 13 -11 17 -6 4 4 0 13 -10 21 -16 11 -15 13 11
18 23 5 29 11 30 34 4 94 12 211 16 231 3 13 1 20 -5 17 -5 -4 -9 3 -9 14 0
12 4 21 8 21 4 0 8 9 9 20 1 11 -3 20 -8 20 -6 0 -7 5 -4 10 4 6 1 17 -5 25
-7 8 -8 15 -3 15 11 0 11 60 0 78 -5 7 -4 12 2 12 6 0 10 3 8 8 -1 4 3 7 8 7
6 0 9 -4 7 -10 -1 -5 5 -1 13 10 9 11 18 19 20 18 3 -2 13 -3 23 -3 19 0 24
32 7 47 -4 5 -5 2 -1 -4 4 -7 2 -13 -4 -13 -17 0 -54 21 -62 35 -6 9 -18 11
-45 5 -20 -5 -40 -7 -43 -5 -4 2 -78 5 -166 6 -130 1 -163 4 -179 18 -18 15
-19 15 -6 -2 19 -24 9 -30 -22 -14 -14 7 -42 12 -62 11 -21 -2 -33 1 -30 6 4
6 0 10 -9 10 -8 0 -17 -6 -19 -12 -4 -10 -8 -9 -17 2 -8 10 -13 11 -16 3 -4
-8 -15 -9 -37 -2 -40 11 -37 12 -37 -7 0 -9 -5 -12 -12 -8 -14 9 -58 12 -58 4
0 -3 -8 -6 -17 -7 -10 -1 -29 -5 -43 -9 -21 -6 -23 -5 -14 7 14 17 23 59 26
119 2 48 21 89 33 71 3 -6 11 -11 18 -11 6 0 2 7 -10 15 -26 18 -24 69 3 90
14 11 15 14 3 9 -12 -4 -16 1 -16 20 0 14 2 26 6 26 3 0 7 17 9 37 1 20 7 40
13 44 7 4 5 8 -5 12 -9 4 -13 13 -10 22 3 8 2 15 -4 15 -5 0 -10 6 -9 13 0 6
-1 20 -1 30 -2 16 -4 17 -17 4 -7 -8 -17 -28 -21 -43 -4 -16 -10 -33 -14 -39
-4 -5 -10 -23 -13 -40 -3 -16 -9 -41 -13 -54 -6 -19 -4 -23 7 -17 8 4 6 1 -3
-7 -21 -16 -24 -47 -5 -47 6 0 4 -5 -6 -11 -14 -8 -16 -14 -6 -25 9 -11 8 -14
-5 -14 -13 0 -16 -5 -11 -20 3 -11 2 -20 -2 -20 -5 0 -10 -32 -11 -72 -2 -39
-5 -75 -8 -80 -3 -4 2 -8 10 -8 9 0 16 -7 16 -15 0 -8 6 -15 13 -15 6 0 -1 -9
-18 -20 -20 -13 -24 -20 -14 -20 9 0 20 -7 23 -16 4 -11 10 -13 19 -7 6 6 28
9 47 7 19 -1 41 2 48 9 19 15 386 8 412 -8 6 -3 15 -3 21 0 5 4 59 8 119 9 91
2 110 0 116 -13 4 -9 7 -18 7 -21 -1 -8 -11 -83 -18 -125 -3 -22 -7 -92 -9
-156 -2 -64 -7 -123 -12 -130 -12 -20 -14 -39 -2 -39 5 0 2 -7 -6 -16 -18 -17
-12 -39 7 -27 7 3 5 -2 -4 -13 -21 -24 -30 -63 -34 -138 -2 -32 -8 -63 -14
-69 -6 -6 -11 -21 -11 -32 0 -12 -3 -25 -7 -29 -4 -4 -9 -19 -10 -34 -1 -15
-6 -45 -11 -67 -4 -22 -7 -66 -6 -97 1 -32 -3 -58 -7 -58 -5 0 -9 -18 -9 -40
0 -22 5 -40 10 -40 7 0 7 -6 0 -19 -7 -14 -6 -21 3 -25 9 -3 7 -9 -5 -19 -23
-18 -23 -28 0 -21 14 5 14 4 2 -5 -14 -10 -23 -111 -10 -111 4 0 7 -7 7 -15 0
-8 -6 -15 -12 -15 -21 0 16 -68 41 -74 12 -3 59 -1 104 5 46 5 89 8 97 5 9 -4
11 -1 7 5 -4 8 6 10 34 7 22 -2 38 0 36 4 -3 5 3 9 13 10 24 2 35 4 53 11 50
19 130 34 158 30 21 -3 32 -1 32 7 0 7 8 9 19 5 11 -3 22 -1 26 4 3 7 0 8 -9
5 -11 -4 -16 0 -16 11 0 9 4 14 10 10 12 -8 50 16 50 32 0 7 -6 13 -13 13 -12
0 -21 52 -18 95 1 6 4 66 7 135 7 151 12 222 22 315 5 39 8 105 7 148 -1 42 2
77 6 77 10 0 -2 84 -13 88 -4 2 -5 9 -1 15 10 15 10 147 1 141 -4 -2 -6 13 -5
35 1 22 4 38 8 35 12 -7 15 78 4 100 -8 18 -11 52 -6 91 1 10 211 4 307 -10
34 -5 58 -3 74 5 14 8 25 8 29 2 8 -13 102 -14 117 -1 7 6 17 8 22 5 6 -3 15
1 22 9 7 8 24 15 39 15 21 0 31 10 52 48 25 44 27 53 23 157 -2 61 -5 141 -6
178 0 37 -5 70 -10 73 -4 3 -6 15 -2 27 3 13 -2 36 -10 52 -9 17 -16 35 -16
42 0 7 -10 17 -21 24 -16 8 -20 8 -14 -1z"/>
<path d="M1780 2201 c0 -6 4 -13 10 -16 6 -3 7 1 4 9 -7 18 -14 21 -14 7z"/>
<path d="M1356 2152 c-3 -5 1 -9 9 -9 8 0 12 4 9 9 -3 4 -7 8 -9 8 -2 0 -6 -4
-9 -8z"/>
<path d="M645 2131 c-3 -5 -2 -12 3 -15 5 -3 9 1 9 9 0 17 -3 19 -12 6z"/>
<path d="M945 2080 c-3 -6 1 -7 9 -4 18 7 21 14 7 14 -6 0 -13 -4 -16 -10z"/>
<path d="M419 2063 c-13 -17 -12 -17 4 -4 16 13 20 13 27 1 5 -8 7 -17 5 -20
-2 -4 2 -7 10 -7 11 0 10 5 -2 24 -18 28 -26 29 -44 6z"/>
<path d="M600 2055 c-7 -9 -11 -17 -9 -20 3 -2 10 5 17 15 14 24 10 26 -8 5z"/>
<path d="M653 2045 c0 -8 4 -12 9 -9 5 3 6 10 3 15 -9 13 -12 11 -12 -6z"/>
<path d="M310 2046 c0 -2 7 -7 16 -10 8 -3 12 -2 9 4 -6 10 -25 14 -25 6z"/>
<path d="M665 2010 c-3 -5 -1 -10 4 -10 6 0 11 5 11 10 0 6 -2 10 -4 10 -3 0
-8 -4 -11 -10z"/>
<path d="M1776 1998 c3 -5 10 -6 15 -3 13 9 11 12 -6 12 -8 0 -12 -4 -9 -9z"/>
<path d="M270 1997 c0 -3 12 -12 26 -22 15 -9 23 -12 20 -6 -7 11 -46 35 -46
28z"/>
<path d="M310 1996 c0 -2 8 -10 18 -17 15 -13 16 -12 3 4 -13 16 -21 21 -21
13z"/>
<path d="M1680 1996 c0 -2 7 -7 16 -10 8 -3 12 -2 9 4 -6 10 -25 14 -25 6z"/>
<path d="M1260 1986 c0 -2 9 -6 20 -9 11 -3 18 -1 14 4 -5 9 -34 13 -34 5z"/>
<path d="M299 1948 c-3 -11 -5 -48 -3 -48 11 0 23 40 14 45 -5 3 -10 5 -11 3z"/>
<path d="M1188 1933 c7 -3 16 -2 19 1 4 3 -2 6 -13 5 -11 0 -14 -3 -6 -6z"/>
<path d="M1425 1921 c-3 -5 -2 -12 3 -15 5 -3 9 1 9 9 0 17 -3 19 -12 6z"/>
<path d="M1466 1878 c3 -5 10 -6 15 -3 13 9 11 12 -6 12 -8 0 -12 -4 -9 -9z"/>
<path d="M221 1824 c0 -11 3 -14 6 -6 3 7 2 16 -1 19 -3 4 -6 -2 -5 -13z"/>
<path d="M985 1819 c-4 -6 -5 -12 -2 -15 2 -3 7 2 10 11 7 17 1 20 -8 4z"/>
<path d="M666 1747 c3 -10 9 -15 12 -12 3 3 0 11 -7 18 -10 9 -11 8 -5 -6z"/>
<path d="M1925 1749 c-4 -6 -5 -12 -2 -15 2 -3 7 2 10 11 7 17 1 20 -8 4z"/>
<path d="M986 1742 c-3 -5 1 -9 9 -9 8 0 12 4 9 9 -3 4 -7 8 -9 8 -2 0 -6 -4
-9 -8z"/>
<path d="M100 1669 c0 -5 5 -7 10 -4 6 3 10 8 10 11 0 2 -4 4 -10 4 -5 0 -10
-5 -10 -11z"/>
<path d="M1086 1603 c-6 -14 -5 -15 5 -6 7 7 10 15 7 18 -3 3 -9 -2 -12 -12z"/>
<path d="M1030 1530 c-9 -6 -10 -10 -3 -10 6 0 15 5 18 10 8 12 4 12 -15 0z"/>
<path d="M1026 1433 c-6 -14 -5 -15 5 -6 7 7 10 15 7 18 -3 3 -9 -2 -12 -12z"/>
<path d="M2411 1198 c-8 -18 -13 -36 -12 -40 0 -5 -3 -8 -8 -8 -5 0 -14 -13
-20 -30 -7 -21 -7 -30 1 -30 6 0 8 -12 4 -32 -13 -62 -14 -88 -5 -94 13 -8 -9
-44 -26 -44 -8 0 -15 -5 -15 -11 0 -5 -5 -7 -10 -4 -16 10 -72 -5 -67 -18 2
-7 15 -12 28 -11 13 1 29 -6 35 -14 6 -9 18 -13 28 -9 9 4 17 3 17 -1 6 -30 9
-134 8 -292 0 -136 7 -190 28 -190 13 0 13 -3 3 -15 -18 -22 -11 -25 74 -37
66 -10 78 -9 102 7 17 11 24 12 18 4 -4 -8 6 0 22 16 16 17 38 35 48 41 15 8
18 16 12 39 -6 23 -9 26 -17 14 -7 -12 -9 -12 -9 1 0 9 -3 11 -8 5 -4 -5 -16
-17 -26 -25 -18 -13 -19 -13 -11 0 8 13 6 13 -8 1 -9 -7 -14 -18 -10 -25 4 -7
1 -7 -7 1 -10 9 -18 9 -34 1 -34 -19 -54 -19 -61 0 -8 19 -18 110 -18 160 0
17 -3 32 -7 32 -3 0 -6 9 -6 20 0 11 7 20 16 20 13 0 13 2 1 9 -20 13 -26 62
-9 72 10 7 10 9 0 9 -9 0 -10 5 -3 18 10 18 7 87 -4 123 -5 14 4 20 50 30 30
7 55 16 55 21 0 5 4 7 9 3 5 -3 12 -1 16 5 4 6 10 8 15 5 5 -3 21 0 37 7 15 6
32 10 37 9 5 -1 6 5 2 14 -3 9 -6 21 -6 27 0 6 -7 8 -15 4 -8 -3 -15 -1 -15 3
0 7 -29 3 -95 -13 -5 -2 -23 -8 -39 -15 -42 -17 -58 0 -55 60 2 26 -2 53 -7
61 -6 7 -10 43 -9 81 1 37 -1 67 -4 67 -4 0 -13 -15 -20 -32z"/>
<path d="M993 1198 c1 -15 6 -23 11 -18 4 4 4 16 -2 26 -9 16 -10 14 -9 -8z"/>
<path d="M1300 1200 c8 -5 20 -10 25 -10 6 0 3 5 -5 10 -8 5 -19 10 -25 10 -5
0 -3 -5 5 -10z"/>
<path d="M1048 1193 c7 -3 16 -2 19 1 4 3 -2 6 -13 5 -11 0 -14 -3 -6 -6z"/>
<path d="M1795 1073 c-22 -9 -43 -22 -47 -28 -4 -6 -25 -24 -48 -40 -22 -15
-40 -36 -40 -46 0 -11 -4 -19 -10 -19 -5 0 -10 -15 -10 -34 0 -19 -5 -38 -10
-41 -8 -5 -8 -11 -1 -19 7 -9 7 -16 -1 -24 -6 -6 -13 -20 -14 -29 -1 -10 -5
-36 -8 -58 -3 -24 -1 -42 6 -46 6 -4 8 -14 3 -25 -4 -11 -9 -28 -10 -39 -1
-11 -4 -34 -6 -50 -2 -17 1 -36 5 -44 7 -10 5 -12 -5 -6 -10 6 -11 5 -3 -4 13
-14 6 -61 -8 -61 -6 0 -3 -11 6 -25 9 -14 12 -25 7 -25 -13 0 -5 -40 10 -54 9
-8 10 -7 4 3 -5 9 -4 12 3 7 8 -5 8 -15 1 -33 -7 -19 -6 -28 1 -33 7 -4 11
-11 11 -16 -1 -5 4 -9 10 -9 6 0 16 -7 22 -15 36 -47 107 -78 107 -46 0 7 16
21 35 30 19 9 34 20 34 24 -3 20 2 32 13 30 15 -4 18 22 5 40 -11 14 -61 17
-52 2 5 -9 -15 -15 -38 -11 -4 1 -10 -5 -13 -13 -5 -12 -9 -13 -25 -3 -22 14
-25 33 -6 40 7 3 5 6 -5 6 -10 1 -18 6 -18 12 0 6 7 9 15 5 12 -4 13 -2 6 13
-9 16 -25 133 -23 171 5 126 3 120 42 140 21 11 40 16 44 13 3 -4 6 -1 6 5 0
7 11 12 25 12 14 0 25 5 25 11 0 6 7 9 15 5 8 -3 15 -1 15 4 0 6 3 9 8 7 4 -1
8 3 10 8 5 15 31 27 42 20 6 -3 10 3 10 15 0 12 5 18 10 15 6 -3 10 -1 10 4 0
6 -5 11 -12 11 -6 0 -9 2 -7 5 11 10 68 -20 78 -42 6 -13 15 -23 21 -23 5 0
13 0 18 -1 4 0 13 -11 20 -25 7 -13 17 -24 22 -24 6 0 10 -11 10 -25 0 -14 4
-25 9 -25 6 0 8 -9 6 -20 -3 -14 2 -20 14 -20 12 0 21 -14 31 -52 7 -29 13
-63 12 -75 -1 -15 4 -23 14 -23 13 0 15 -7 11 -30 -4 -16 -2 -32 2 -35 10 -6
3 -43 -11 -61 -5 -8 -2 -14 8 -18 15 -6 15 -8 -1 -25 -15 -18 -20 -18 -55 -6
-73 26 -107 -4 -51 -44 36 -26 91 -39 91 -22 0 7 4 10 9 6 5 -3 12 -1 16 4 3
6 12 8 19 5 9 -3 17 3 21 15 3 12 13 21 21 21 8 0 14 10 14 24 0 13 5 26 11
28 20 7 8 208 -12 208 -5 0 -9 7 -9 15 0 8 -4 15 -9 15 -13 0 -34 57 -25 71 4
7 3 10 -3 6 -9 -6 -19 15 -28 59 -5 23 -38 64 -51 64 -8 0 -17 1 -21 2 -14 4
-64 79 -58 88 3 5 2 11 -3 14 -17 10 0 64 23 76 20 11 28 9 53 -8 16 -12 43
-24 60 -27 27 -4 30 -3 24 18 -9 37 -55 74 -100 82 -43 7 -112 -9 -112 -26 0
-5 -7 -9 -15 -9 -8 0 -15 5 -15 11 0 5 -4 7 -10 4 -5 -3 -10 -1 -10 4 0 6 -8
20 -17 32 -35 42 -109 56 -168 32z m110 -119 c0 -19 -3 -34 -7 -34 -4 0 -8 -7
-8 -15 0 -20 -60 -87 -74 -82 -6 2 -30 -6 -54 -19 -23 -13 -44 -24 -46 -24 -3
0 1 73 5 78 1 1 2 5 3 10 1 4 7 16 13 27 6 11 12 23 12 27 4 24 14 36 27 31 9
-3 14 2 14 15 0 17 5 20 35 17 19 -2 35 0 35 5 0 4 10 5 23 3 18 -4 22 -11 22
-39z m95 -115 c0 -5 -4 -9 -10 -9 -5 0 -10 7 -10 16 0 8 5 12 10 9 6 -3 10
-10 10 -16z"/>
<path d="M993 989 c-2 -23 3 -25 10 -4 4 8 3 16 -1 19 -4 3 -9 -4 -9 -15z"/>
<path d="M1265 831 c-6 -11 13 -26 22 -17 4 3 1 6 -6 6 -7 0 -9 5 -6 10 3 6 4
10 1 10 -3 0 -7 -4 -11 -9z"/>
<path d="M926 758 c3 -5 10 -6 15 -3 13 9 11 12 -6 12 -8 0 -12 -4 -9 -9z"/>
<path d="M978 673 c6 -2 9 -10 6 -15 -4 -7 -2 -8 5 -4 13 9 5 26 -12 25 -9 0
-8 -2 1 -6z"/>
<path d="M1860 416 c0 -2 8 -10 18 -17 15 -13 16 -12 3 4 -13 16 -21 21 -21
13z"/>
<path d="M1835 399 c-4 -6 -5 -12 -2 -15 2 -3 7 2 10 11 7 17 1 20 -8 4z"/>
<path d="M999 383 c-1 -5 -1 -12 0 -17 1 -5 -4 -13 -11 -18 -10 -7 -10 -9 2
-5 8 2 16 13 16 25 1 20 -5 31 -7 15z"/>
<path d="M1785 372 c-5 -4 -11 -14 -13 -22 -2 -12 1 -11 11 2 8 10 18 14 22
10 5 -4 5 -1 1 6 -8 14 -8 14 -21 4z"/>
<path d="M1080 354 c0 -2 9 -8 20 -14 15 -8 18 -8 14 3 -4 11 -34 21 -34 11z"/>
<path d="M1250 349 c0 -5 5 -7 10 -4 6 3 10 8 10 11 0 2 -4 4 -10 4 -5 0 -10
-5 -10 -11z"/>
<path d="M927 343 c-10 -9 -9 -23 1 -23 5 0 9 7 9 15 0 17 -1 18 -10 8z"/>
<path d="M1056 333 c-6 -14 -5 -15 5 -6 7 7 10 15 7 18 -3 3 -9 -2 -12 -12z"/>
<path d="M1026 317 c3 -10 9 -15 12 -12 3 3 0 11 -7 18 -10 9 -11 8 -5 -6z"/>
</g>
</svg>
